<svg xmlns="http://www.w3.org/2000/svg" width="24" height="24" viewBox="0 0 24 24" fill="none">
  <path d="M20.5 12C20.5 7.30558 16.6944 3.5 12 3.5C7.30558 3.5 3.5 7.30558 3.5 12C3.5 14.1039 4.2643 16.0252 5.53125 17.5107L5.95215 18.0049L5.72168 20.0811L7.59473 19.665L8.0791 19.5566L8.5332 19.7598C9.59256 20.2339 10.764 20.5 12 20.5V22C10.5462 22 9.16621 21.6868 7.91992 21.1289L4.68262 21.8486C4.34794 21.9229 4.03929 21.6454 4.07715 21.3047L4.38965 18.4844C2.90046 16.7383 2 14.4748 2 12C2 6.47715 6.47715 2 12 2C17.5228 2 22 6.47715 22 12C22 17.5228 17.5228 22 12 22V20.5C16.6944 20.5 20.5 16.6944 20.5 12Z" fill="#0D0D0D"/>
  <path d="M10.9533 14.1025C10.968 12.1836 11.5393 11.5977 12.5061 10.9971C13.1213 10.6162 13.59 10.0889 13.59 9.3125C13.59 8.38965 12.8869 7.81836 12.008 7.81836C11.217 7.81836 10.4553 8.30176 10.382 9.38574H8.8C8.85859 7.52539 10.2648 6.5 12.008 6.5C13.9123 6.5 15.1867 7.64258 15.1867 9.3125C15.1867 10.4844 14.6301 11.2754 13.6926 11.8467C12.8137 12.374 12.4768 12.916 12.4475 14.1025V14.1904H10.9533V14.1025ZM11.759 17.3545C11.1877 17.3545 10.7043 16.8857 10.7189 16.3145C10.7043 15.7432 11.1877 15.2744 11.759 15.2744C12.3156 15.2744 12.799 15.7432 12.799 16.3145C12.799 16.8857 12.3156 17.3545 11.759 17.3545Z" fill="#111827"/>
</svg>