<svg xmlns="http://www.w3.org/2000/svg" width="24" height="24" viewBox="0 0 24 24" fill="none">
  <path d="M15.5 7C15.5 5.067 13.933 3.5 12 3.5C10.067 3.5 8.5 5.067 8.5 7C8.5 8.933 10.067 10.5 12 10.5V12C9.23858 12 7 9.76142 7 7C7 4.23858 9.23858 2 12 2C14.7614 2 17 4.23858 17 7C17 9.76142 14.7614 12 12 12V10.5C13.933 10.5 15.5 8.933 15.5 7Z" fill="#111827"/>
  <path d="M18.25 18C18.25 16.2051 16.7949 14.75 15 14.75H9C7.20507 14.75 5.75 16.2051 5.75 18V22H4.25V18C4.25 15.3766 6.37665 13.25 9 13.25H15C17.6234 13.25 19.75 15.3766 19.75 18V22H18.25V18Z" fill="#111827"/>
</svg>